<svg width="364" height="364" viewBox="0 0 364 364" fill="none" xmlns="http://www.w3.org/2000/svg">
<path d="M110.404 82C110.124 82 109.9 81.9253 109.732 81.776C109.583 81.608 109.48 81.4027 109.424 81.16L106.092 63.212C106.092 63.156 106.083 63.1093 106.064 63.072C106.064 63.0347 106.064 63.0067 106.064 62.988C106.064 62.82 106.12 62.68 106.232 62.568C106.363 62.456 106.503 62.4 106.652 62.4H109.116C109.583 62.4 109.844 62.5867 109.9 62.96L112.224 75.644L114.744 67.44C114.8 67.2907 114.893 67.1413 115.024 66.992C115.173 66.824 115.388 66.74 115.668 66.74H117.18C117.479 66.74 117.693 66.824 117.824 66.992C117.955 67.1413 118.039 67.2907 118.076 67.44L120.624 75.616L122.948 62.96C123.004 62.5867 123.265 62.4 123.732 62.4H126.196C126.345 62.4 126.476 62.456 126.588 62.568C126.7 62.68 126.756 62.82 126.756 62.988C126.756 63.0067 126.756 63.0347 126.756 63.072C126.756 63.1093 126.747 63.156 126.728 63.212L123.396 81.16C123.359 81.4027 123.256 81.608 123.088 81.776C122.92 81.9253 122.696 82 122.416 82H120.54C120.26 82 120.036 81.9253 119.868 81.776C119.719 81.6267 119.616 81.468 119.56 81.3L116.424 71.948L113.288 81.3C113.213 81.468 113.101 81.6267 112.952 81.776C112.803 81.9253 112.579 82 112.28 82H110.404ZM135.405 82.28C133.333 82.28 131.69 81.6827 130.477 80.488C129.264 79.2933 128.61 77.5947 128.517 75.392C128.498 75.2053 128.489 74.972 128.489 74.692C128.489 74.3933 128.498 74.16 128.517 73.992C128.592 72.592 128.909 71.3787 129.469 70.352C130.048 69.3253 130.841 68.5413 131.849 68C132.857 67.44 134.042 67.16 135.405 67.16C136.917 67.16 138.186 67.4773 139.213 68.112C140.24 68.728 141.014 69.596 141.537 70.716C142.06 71.8173 142.321 73.096 142.321 74.552V75.14C142.321 75.3267 142.256 75.4853 142.125 75.616C141.994 75.7467 141.826 75.812 141.621 75.812H132.325C132.325 75.812 132.325 75.84 132.325 75.896C132.325 75.952 132.325 75.9987 132.325 76.036C132.344 76.6893 132.465 77.296 132.689 77.856C132.932 78.3973 133.277 78.836 133.725 79.172C134.192 79.508 134.742 79.676 135.377 79.676C135.9 79.676 136.338 79.6013 136.693 79.452C137.048 79.284 137.337 79.0973 137.561 78.892C137.785 78.6867 137.944 78.5187 138.037 78.388C138.205 78.164 138.336 78.0333 138.429 77.996C138.541 77.94 138.7 77.912 138.905 77.912H141.313C141.5 77.912 141.649 77.968 141.761 78.08C141.892 78.192 141.948 78.332 141.929 78.5C141.91 78.7987 141.752 79.1627 141.453 79.592C141.173 80.0213 140.762 80.4413 140.221 80.852C139.68 81.2627 138.998 81.608 138.177 81.888C137.374 82.1493 136.45 82.28 135.405 82.28ZM132.325 73.46H138.513V73.376C138.513 72.648 138.392 72.0133 138.149 71.472C137.906 70.9307 137.552 70.5013 137.085 70.184C136.618 69.8667 136.058 69.708 135.405 69.708C134.752 69.708 134.192 69.8667 133.725 70.184C133.258 70.5013 132.904 70.9307 132.661 71.472C132.437 72.0133 132.325 72.648 132.325 73.376V73.46ZM145.993 82C145.807 82 145.648 81.9347 145.517 81.804C145.387 81.6733 145.321 81.5147 145.321 81.328V62.792C145.321 62.6053 145.387 62.4467 145.517 62.316C145.648 62.1853 145.807 62.12 145.993 62.12H148.317C148.504 62.12 148.663 62.1853 148.793 62.316C148.924 62.4467 148.989 62.6053 148.989 62.792V81.328C148.989 81.5147 148.924 81.6733 148.793 81.804C148.663 81.9347 148.504 82 148.317 82H145.993ZM159.003 82.28C157.659 82.28 156.474 82.028 155.447 81.524C154.439 81.02 153.646 80.292 153.067 79.34C152.507 78.3693 152.199 77.2027 152.143 75.84C152.125 75.56 152.115 75.196 152.115 74.748C152.115 74.2813 152.125 73.8987 152.143 73.6C152.199 72.2373 152.507 71.08 153.067 70.128C153.646 69.1573 154.439 68.42 155.447 67.916C156.474 67.412 157.659 67.16 159.003 67.16C160.198 67.16 161.215 67.328 162.055 67.664C162.895 68 163.586 68.42 164.127 68.924C164.669 69.428 165.07 69.96 165.331 70.52C165.611 71.0613 165.761 71.556 165.779 72.004C165.798 72.2093 165.733 72.3773 165.583 72.508C165.453 72.62 165.294 72.676 165.107 72.676H162.643C162.457 72.676 162.307 72.6293 162.195 72.536C162.102 72.4427 162.009 72.3027 161.915 72.116C161.635 71.3693 161.262 70.8467 160.795 70.548C160.347 70.2307 159.769 70.072 159.059 70.072C158.126 70.072 157.379 70.3707 156.819 70.968C156.278 71.5467 155.989 72.4707 155.951 73.74C155.914 74.4493 155.914 75.1027 155.951 75.7C155.989 76.988 156.278 77.9213 156.819 78.5C157.379 79.0787 158.126 79.368 159.059 79.368C159.787 79.368 160.375 79.2187 160.823 78.92C161.271 78.6027 161.635 78.0707 161.915 77.324C162.009 77.1373 162.102 76.9973 162.195 76.904C162.307 76.8107 162.457 76.764 162.643 76.764H165.107C165.294 76.764 165.453 76.8293 165.583 76.96C165.733 77.072 165.798 77.2307 165.779 77.436C165.761 77.772 165.667 78.1547 165.499 78.584C165.35 78.9947 165.098 79.424 164.743 79.872C164.407 80.3013 163.978 80.7027 163.455 81.076C162.933 81.4307 162.298 81.72 161.551 81.944C160.823 82.168 159.974 82.28 159.003 82.28ZM175.14 82.28C173.646 82.28 172.386 82.0187 171.36 81.496C170.352 80.9733 169.577 80.236 169.036 79.284C168.513 78.332 168.214 77.2213 168.14 75.952C168.121 75.616 168.112 75.2053 168.112 74.72C168.112 74.2347 168.121 73.824 168.14 73.488C168.214 72.2 168.522 71.0893 169.064 70.156C169.624 69.204 170.408 68.4667 171.416 67.944C172.442 67.4213 173.684 67.16 175.14 67.16C176.596 67.16 177.828 67.4213 178.836 67.944C179.862 68.4667 180.646 69.204 181.188 70.156C181.748 71.0893 182.065 72.2 182.14 73.488C182.158 73.824 182.168 74.2347 182.168 74.72C182.168 75.2053 182.158 75.616 182.14 75.952C182.065 77.2213 181.757 78.332 181.216 79.284C180.693 80.236 179.918 80.9733 178.892 81.496C177.884 82.0187 176.633 82.28 175.14 82.28ZM175.14 79.508C176.129 79.508 176.894 79.2 177.436 78.584C177.977 77.9493 178.276 77.0253 178.332 75.812C178.35 75.532 178.36 75.168 178.36 74.72C178.36 74.272 178.35 73.908 178.332 73.628C178.276 72.4333 177.977 71.5187 177.436 70.884C176.894 70.2493 176.129 69.932 175.14 69.932C174.15 69.932 173.385 70.2493 172.844 70.884C172.302 71.5187 172.004 72.4333 171.948 73.628C171.929 73.908 171.92 74.272 171.92 74.72C171.92 75.168 171.929 75.532 171.948 75.812C172.004 77.0253 172.302 77.9493 172.844 78.584C173.385 79.2 174.15 79.508 175.14 79.508ZM185.942 82C185.755 82 185.597 81.9347 185.466 81.804C185.335 81.6733 185.27 81.5147 185.27 81.328V68.112C185.27 67.9253 185.335 67.7667 185.466 67.636C185.597 67.5053 185.755 67.44 185.942 67.44H188.126C188.313 67.44 188.471 67.5053 188.602 67.636C188.733 67.7667 188.798 67.9253 188.798 68.112V69.064C189.19 68.5413 189.713 68.1027 190.366 67.748C191.038 67.3747 191.831 67.1787 192.746 67.16C194.874 67.1227 196.358 67.9533 197.198 69.652C197.627 68.9053 198.243 68.308 199.046 67.86C199.867 67.3933 200.773 67.16 201.762 67.16C202.733 67.16 203.61 67.384 204.394 67.832C205.197 68.28 205.822 68.9613 206.27 69.876C206.737 70.772 206.97 71.9107 206.97 73.292V81.328C206.97 81.5147 206.905 81.6733 206.774 81.804C206.643 81.9347 206.485 82 206.298 82H204.002C203.815 82 203.657 81.9347 203.526 81.804C203.395 81.6733 203.33 81.5147 203.33 81.328V73.516C203.33 72.676 203.209 72.0133 202.966 71.528C202.723 71.024 202.397 70.6693 201.986 70.464C201.575 70.2587 201.118 70.156 200.614 70.156C200.203 70.156 199.793 70.2587 199.382 70.464C198.971 70.6693 198.635 71.024 198.374 71.528C198.113 72.0133 197.982 72.676 197.982 73.516V81.328C197.982 81.5147 197.917 81.6733 197.786 81.804C197.655 81.9347 197.497 82 197.31 82H195.014C194.809 82 194.641 81.9347 194.51 81.804C194.398 81.6733 194.342 81.5147 194.342 81.328V73.516C194.342 72.676 194.211 72.0133 193.95 71.528C193.689 71.024 193.353 70.6693 192.942 70.464C192.531 70.2587 192.093 70.156 191.626 70.156C191.197 70.156 190.777 70.268 190.366 70.492C189.955 70.6973 189.619 71.0427 189.358 71.528C189.097 72.0133 188.966 72.676 188.966 73.516V81.328C188.966 81.5147 188.901 81.6733 188.77 81.804C188.639 81.9347 188.481 82 188.294 82H185.942ZM216.808 82.28C214.736 82.28 213.093 81.6827 211.88 80.488C210.666 79.2933 210.013 77.5947 209.92 75.392C209.901 75.2053 209.892 74.972 209.892 74.692C209.892 74.3933 209.901 74.16 209.92 73.992C209.994 72.592 210.312 71.3787 210.872 70.352C211.45 69.3253 212.244 68.5413 213.252 68C214.26 67.44 215.445 67.16 216.808 67.16C218.32 67.16 219.589 67.4773 220.616 68.112C221.642 68.728 222.417 69.596 222.94 70.716C223.462 71.8173 223.724 73.096 223.724 74.552V75.14C223.724 75.3267 223.658 75.4853 223.528 75.616C223.397 75.7467 223.229 75.812 223.024 75.812H213.728C213.728 75.812 213.728 75.84 213.728 75.896C213.728 75.952 213.728 75.9987 213.728 76.036C213.746 76.6893 213.868 77.296 214.092 77.856C214.334 78.3973 214.68 78.836 215.128 79.172C215.594 79.508 216.145 79.676 216.78 79.676C217.302 79.676 217.741 79.6013 218.096 79.452C218.45 79.284 218.74 79.0973 218.964 78.892C219.188 78.6867 219.346 78.5187 219.44 78.388C219.608 78.164 219.738 78.0333 219.832 77.996C219.944 77.94 220.102 77.912 220.308 77.912H222.716C222.902 77.912 223.052 77.968 223.164 78.08C223.294 78.192 223.35 78.332 223.332 78.5C223.313 78.7987 223.154 79.1627 222.856 79.592C222.576 80.0213 222.165 80.4413 221.624 80.852C221.082 81.2627 220.401 81.608 219.58 81.888C218.777 82.1493 217.853 82.28 216.808 82.28ZM213.728 73.46H219.916V73.376C219.916 72.648 219.794 72.0133 219.552 71.472C219.309 70.9307 218.954 70.5013 218.488 70.184C218.021 69.8667 217.461 69.708 216.808 69.708C216.154 69.708 215.594 69.8667 215.128 70.184C214.661 70.5013 214.306 70.9307 214.064 71.472C213.84 72.0133 213.728 72.648 213.728 73.376V73.46ZM239.1 82C237.98 82 237.037 81.804 236.272 81.412C235.507 81.02 234.937 80.4413 234.564 79.676C234.191 78.892 234.004 77.9213 234.004 76.764V70.408H231.792C231.605 70.408 231.447 70.3427 231.316 70.212C231.185 70.0813 231.12 69.9227 231.12 69.736V68.112C231.12 67.9253 231.185 67.7667 231.316 67.636C231.447 67.5053 231.605 67.44 231.792 67.44H234.004V62.792C234.004 62.6053 234.06 62.4467 234.172 62.316C234.303 62.1853 234.471 62.12 234.676 62.12H236.944C237.131 62.12 237.289 62.1853 237.42 62.316C237.551 62.4467 237.616 62.6053 237.616 62.792V67.44H241.116C241.303 67.44 241.461 67.5053 241.592 67.636C241.723 67.7667 241.788 67.9253 241.788 68.112V69.736C241.788 69.9227 241.723 70.0813 241.592 70.212C241.461 70.3427 241.303 70.408 241.116 70.408H237.616V76.484C237.616 77.2493 237.747 77.8467 238.008 78.276C238.288 78.7053 238.764 78.92 239.436 78.92H241.368C241.555 78.92 241.713 78.9853 241.844 79.116C241.975 79.2467 242.04 79.4053 242.04 79.592V81.328C242.04 81.5147 241.975 81.6733 241.844 81.804C241.713 81.9347 241.555 82 241.368 82H239.1ZM250.964 82.28C249.47 82.28 248.21 82.0187 247.184 81.496C246.176 80.9733 245.401 80.236 244.86 79.284C244.337 78.332 244.038 77.2213 243.964 75.952C243.945 75.616 243.936 75.2053 243.936 74.72C243.936 74.2347 243.945 73.824 243.964 73.488C244.038 72.2 244.346 71.0893 244.888 70.156C245.448 69.204 246.232 68.4667 247.24 67.944C248.266 67.4213 249.508 67.16 250.964 67.16C252.42 67.16 253.652 67.4213 254.66 67.944C255.686 68.4667 256.47 69.204 257.012 70.156C257.572 71.0893 257.889 72.2 257.964 73.488C257.982 73.824 257.992 74.2347 257.992 74.72C257.992 75.2053 257.982 75.616 257.964 75.952C257.889 77.2213 257.581 78.332 257.04 79.284C256.517 80.236 255.742 80.9733 254.716 81.496C253.708 82.0187 252.457 82.28 250.964 82.28ZM250.964 79.508C251.953 79.508 252.718 79.2 253.26 78.584C253.801 77.9493 254.1 77.0253 254.156 75.812C254.174 75.532 254.184 75.168 254.184 74.72C254.184 74.272 254.174 73.908 254.156 73.628C254.1 72.4333 253.801 71.5187 253.26 70.884C252.718 70.2493 251.953 69.932 250.964 69.932C249.974 69.932 249.209 70.2493 248.668 70.884C248.126 71.5187 247.828 72.4333 247.772 73.628C247.753 73.908 247.744 74.272 247.744 74.72C247.744 75.168 247.753 75.532 247.772 75.812C247.828 77.0253 248.126 77.9493 248.668 78.584C249.209 79.2 249.974 79.508 250.964 79.508Z" fill="white"/>
<path d="M45.5211 126C45.3078 126 45.1078 125.92 44.9211 125.76C44.7611 125.6 44.6811 125.4 44.6811 125.16C44.6811 125.053 44.7078 124.933 44.7611 124.8L54.4011 99C54.4811 98.7333 54.6278 98.5067 54.8411 98.32C55.0811 98.1067 55.4011 98 55.8011 98H60.1611C60.5611 98 60.8678 98.1067 61.0811 98.32C61.2944 98.5067 61.4544 98.7333 61.5611 99L71.2011 124.8C71.2278 124.933 71.2411 125.053 71.2411 125.16C71.2411 125.4 71.1611 125.6 71.0011 125.76C70.8411 125.92 70.6544 126 70.4411 126H66.9611C66.5878 126 66.3078 125.92 66.1211 125.76C65.9611 125.573 65.8544 125.4 65.8011 125.24L63.9211 120.36H52.0411L50.1611 125.24C50.1078 125.4 49.9878 125.573 49.8011 125.76C49.6411 125.92 49.3744 126 49.0011 126H45.5211ZM53.4411 115.76H62.5211L57.9611 103.4L53.4411 115.76ZM75.4955 133.6C75.2288 133.6 75.0021 133.507 74.8155 133.32C74.6288 133.133 74.5355 132.907 74.5355 132.64V106.16C74.5355 105.893 74.6288 105.667 74.8155 105.48C75.0021 105.293 75.2288 105.2 75.4955 105.2H78.6555C78.9488 105.2 79.1755 105.293 79.3355 105.48C79.5221 105.667 79.6155 105.893 79.6155 106.16V107.76C80.2555 106.907 81.0955 106.2 82.1355 105.64C83.1755 105.08 84.4688 104.8 86.0155 104.8C87.4288 104.8 88.6555 105.027 89.6955 105.48C90.7355 105.933 91.6021 106.587 92.2955 107.44C92.9888 108.267 93.5221 109.253 93.8955 110.4C94.2688 111.547 94.4821 112.813 94.5355 114.2C94.5621 114.653 94.5755 115.12 94.5755 115.6C94.5755 116.08 94.5621 116.56 94.5355 117.04C94.5088 118.373 94.3088 119.613 93.9355 120.76C93.5621 121.88 93.0155 122.867 92.2955 123.72C91.6021 124.547 90.7355 125.2 89.6955 125.68C88.6555 126.16 87.4288 126.4 86.0155 126.4C84.5755 126.4 83.3488 126.147 82.3355 125.64C81.3221 125.107 80.4955 124.413 79.8555 123.56V132.64C79.8555 132.907 79.7621 133.133 79.5755 133.32C79.4155 133.507 79.1888 133.6 78.8955 133.6H75.4955ZM84.5355 122.12C85.6821 122.12 86.5755 121.88 87.2155 121.4C87.8555 120.893 88.3088 120.24 88.5755 119.44C88.8688 118.64 89.0421 117.76 89.0955 116.8C89.1488 116 89.1488 115.2 89.0955 114.4C89.0421 113.44 88.8688 112.56 88.5755 111.76C88.3088 110.96 87.8555 110.32 87.2155 109.84C86.5755 109.333 85.6821 109.08 84.5355 109.08C83.4421 109.08 82.5488 109.333 81.8555 109.84C81.1888 110.347 80.6955 111 80.3755 111.8C80.0821 112.573 79.9088 113.373 79.8555 114.2C79.8288 114.68 79.8155 115.187 79.8155 115.72C79.8155 116.253 79.8288 116.773 79.8555 117.28C79.8821 118.08 80.0688 118.853 80.4155 119.6C80.7621 120.32 81.2688 120.92 81.9355 121.4C82.6021 121.88 83.4688 122.12 84.5355 122.12ZM108.266 126.4C106.132 126.4 104.332 126.027 102.866 125.28C101.426 124.533 100.319 123.48 99.5458 122.12C98.7991 120.76 98.3724 119.173 98.2658 117.36C98.2391 116.88 98.2258 116.293 98.2258 115.6C98.2258 114.907 98.2391 114.32 98.2658 113.84C98.3724 112 98.8124 110.413 99.5858 109.08C100.386 107.72 101.506 106.667 102.946 105.92C104.412 105.173 106.186 104.8 108.266 104.8C110.346 104.8 112.106 105.173 113.546 105.92C115.012 106.667 116.132 107.72 116.906 109.08C117.706 110.413 118.159 112 118.266 113.84C118.292 114.32 118.306 114.907 118.306 115.6C118.306 116.293 118.292 116.88 118.266 117.36C118.159 119.173 117.719 120.76 116.946 122.12C116.199 123.48 115.092 124.533 113.626 125.28C112.186 126.027 110.399 126.4 108.266 126.4ZM108.266 122.44C109.679 122.44 110.772 122 111.546 121.12C112.319 120.213 112.746 118.893 112.826 117.16C112.852 116.76 112.866 116.24 112.866 115.6C112.866 114.96 112.852 114.44 112.826 114.04C112.746 112.333 112.319 111.027 111.546 110.12C110.772 109.213 109.679 108.76 108.266 108.76C106.852 108.76 105.759 109.213 104.986 110.12C104.212 111.027 103.786 112.333 103.706 114.04C103.679 114.44 103.666 114.96 103.666 115.6C103.666 116.24 103.679 116.76 103.706 117.16C103.786 118.893 104.212 120.213 104.986 121.12C105.759 122 106.852 122.44 108.266 122.44ZM130.618 126.4C129.018 126.4 127.644 126.213 126.498 125.84C125.378 125.467 124.458 125 123.738 124.44C123.018 123.88 122.484 123.32 122.138 122.76C121.791 122.2 121.604 121.733 121.578 121.36C121.551 121.067 121.631 120.84 121.818 120.68C122.031 120.493 122.258 120.4 122.498 120.4H125.658C125.764 120.4 125.858 120.413 125.938 120.44C126.018 120.467 126.124 120.547 126.258 120.68C126.604 120.973 126.964 121.28 127.338 121.6C127.738 121.92 128.204 122.2 128.738 122.44C129.271 122.653 129.938 122.76 130.738 122.76C131.778 122.76 132.644 122.56 133.338 122.16C134.058 121.733 134.418 121.133 134.418 120.36C134.418 119.8 134.258 119.347 133.938 119C133.644 118.653 133.084 118.347 132.258 118.08C131.431 117.787 130.258 117.48 128.738 117.16C127.244 116.813 126.004 116.373 125.018 115.84C124.031 115.307 123.298 114.64 122.818 113.84C122.338 113.04 122.098 112.107 122.098 111.04C122.098 110 122.404 109.013 123.018 108.08C123.658 107.12 124.591 106.333 125.818 105.72C127.071 105.107 128.618 104.8 130.458 104.8C131.898 104.8 133.151 104.987 134.218 105.36C135.284 105.707 136.164 106.147 136.858 106.68C137.578 107.213 138.124 107.76 138.498 108.32C138.871 108.853 139.071 109.32 139.098 109.72C139.124 110.013 139.044 110.253 138.858 110.44C138.671 110.6 138.458 110.68 138.218 110.68H135.258C135.124 110.68 135.004 110.653 134.898 110.6C134.791 110.547 134.684 110.48 134.578 110.4C134.284 110.133 133.964 109.853 133.618 109.56C133.271 109.267 132.844 109.013 132.338 108.8C131.858 108.56 131.218 108.44 130.418 108.44C129.404 108.44 128.631 108.667 128.098 109.12C127.564 109.547 127.298 110.093 127.298 110.76C127.298 111.213 127.418 111.613 127.658 111.96C127.924 112.28 128.444 112.587 129.218 112.88C129.991 113.173 131.164 113.48 132.738 113.8C134.524 114.12 135.938 114.6 136.978 115.24C138.044 115.853 138.791 116.573 139.218 117.4C139.671 118.2 139.898 119.093 139.898 120.08C139.898 121.28 139.538 122.36 138.818 123.32C138.124 124.28 137.084 125.04 135.698 125.6C134.338 126.133 132.644 126.4 130.618 126.4ZM153.349 126C151.749 126 150.402 125.72 149.309 125.16C148.215 124.6 147.402 123.773 146.869 122.68C146.335 121.56 146.069 120.173 146.069 118.52V109.44H142.909C142.642 109.44 142.415 109.347 142.229 109.16C142.042 108.973 141.949 108.747 141.949 108.48V106.16C141.949 105.893 142.042 105.667 142.229 105.48C142.415 105.293 142.642 105.2 142.909 105.2H146.069V98.56C146.069 98.2933 146.149 98.0667 146.309 97.88C146.495 97.6933 146.735 97.6 147.029 97.6H150.269C150.535 97.6 150.762 97.6933 150.949 97.88C151.135 98.0667 151.229 98.2933 151.229 98.56V105.2H156.229C156.495 105.2 156.722 105.293 156.909 105.48C157.095 105.667 157.189 105.893 157.189 106.16V108.48C157.189 108.747 157.095 108.973 156.909 109.16C156.722 109.347 156.495 109.44 156.229 109.44H151.229V118.12C151.229 119.213 151.415 120.067 151.789 120.68C152.189 121.293 152.869 121.6 153.829 121.6H156.589C156.855 121.6 157.082 121.693 157.269 121.88C157.455 122.067 157.549 122.293 157.549 122.56V125.04C157.549 125.307 157.455 125.533 157.269 125.72C157.082 125.907 156.855 126 156.589 126H153.349ZM162.097 126C161.83 126 161.604 125.907 161.417 125.72C161.23 125.533 161.137 125.307 161.137 125.04V98.56C161.137 98.2933 161.23 98.0667 161.417 97.88C161.604 97.6933 161.83 97.6 162.097 97.6H165.417C165.684 97.6 165.91 97.6933 166.097 97.88C166.284 98.0667 166.377 98.2933 166.377 98.56V125.04C166.377 125.307 166.284 125.533 166.097 125.72C165.91 125.907 165.684 126 165.417 126H162.097ZM180.643 126.4C177.683 126.4 175.336 125.547 173.603 123.84C171.87 122.133 170.936 119.707 170.803 116.56C170.776 116.293 170.763 115.96 170.763 115.56C170.763 115.133 170.776 114.8 170.803 114.56C170.91 112.56 171.363 110.827 172.163 109.36C172.99 107.893 174.123 106.773 175.563 106C177.003 105.2 178.696 104.8 180.643 104.8C182.803 104.8 184.616 105.253 186.083 106.16C187.55 107.04 188.656 108.28 189.403 109.88C190.15 111.453 190.523 113.28 190.523 115.36V116.2C190.523 116.467 190.43 116.693 190.243 116.88C190.056 117.067 189.816 117.16 189.523 117.16H176.243C176.243 117.16 176.243 117.2 176.243 117.28C176.243 117.36 176.243 117.427 176.243 117.48C176.27 118.413 176.443 119.28 176.763 120.08C177.11 120.853 177.603 121.48 178.243 121.96C178.91 122.44 179.696 122.68 180.603 122.68C181.35 122.68 181.976 122.573 182.483 122.36C182.99 122.12 183.403 121.853 183.723 121.56C184.043 121.267 184.27 121.027 184.403 120.84C184.643 120.52 184.83 120.333 184.963 120.28C185.123 120.2 185.35 120.16 185.643 120.16H189.083C189.35 120.16 189.563 120.24 189.723 120.4C189.91 120.56 189.99 120.76 189.963 121C189.936 121.427 189.71 121.947 189.283 122.56C188.883 123.173 188.296 123.773 187.523 124.36C186.75 124.947 185.776 125.44 184.603 125.84C183.456 126.213 182.136 126.4 180.643 126.4ZM176.243 113.8H185.083V113.68C185.083 112.64 184.91 111.733 184.563 110.96C184.216 110.187 183.71 109.573 183.043 109.12C182.376 108.667 181.576 108.44 180.643 108.44C179.71 108.44 178.91 108.667 178.243 109.12C177.576 109.573 177.07 110.187 176.723 110.96C176.403 111.733 176.243 112.64 176.243 113.68V113.8ZM193.754 106.52C193.514 106.52 193.328 106.44 193.194 106.28C193.061 106.12 193.008 105.907 193.034 105.64L194.114 98.88C194.168 98.5333 194.288 98.24 194.474 98C194.688 97.7333 194.994 97.6 195.394 97.6H199.074C199.288 97.6 199.461 97.68 199.594 97.84C199.728 97.9733 199.794 98.1333 199.794 98.32C199.794 98.5067 199.754 98.6933 199.674 98.88L197.114 105.48C197.008 105.747 196.848 105.987 196.634 106.2C196.448 106.413 196.168 106.52 195.794 106.52H193.754ZM210.071 126.4C208.471 126.4 207.097 126.213 205.951 125.84C204.831 125.467 203.911 125 203.191 124.44C202.471 123.88 201.937 123.32 201.591 122.76C201.244 122.2 201.057 121.733 201.031 121.36C201.004 121.067 201.084 120.84 201.271 120.68C201.484 120.493 201.711 120.4 201.951 120.4H205.111C205.217 120.4 205.311 120.413 205.391 120.44C205.471 120.467 205.577 120.547 205.711 120.68C206.057 120.973 206.417 121.28 206.791 121.6C207.191 121.92 207.657 122.2 208.191 122.44C208.724 122.653 209.391 122.76 210.191 122.76C211.231 122.76 212.097 122.56 212.791 122.16C213.511 121.733 213.871 121.133 213.871 120.36C213.871 119.8 213.711 119.347 213.391 119C213.097 118.653 212.537 118.347 211.711 118.08C210.884 117.787 209.711 117.48 208.191 117.16C206.697 116.813 205.457 116.373 204.471 115.84C203.484 115.307 202.751 114.64 202.271 113.84C201.791 113.04 201.551 112.107 201.551 111.04C201.551 110 201.857 109.013 202.471 108.08C203.111 107.12 204.044 106.333 205.271 105.72C206.524 105.107 208.071 104.8 209.911 104.8C211.351 104.8 212.604 104.987 213.671 105.36C214.737 105.707 215.617 106.147 216.311 106.68C217.031 107.213 217.577 107.76 217.951 108.32C218.324 108.853 218.524 109.32 218.551 109.72C218.577 110.013 218.497 110.253 218.311 110.44C218.124 110.6 217.911 110.68 217.671 110.68H214.711C214.577 110.68 214.457 110.653 214.351 110.6C214.244 110.547 214.137 110.48 214.031 110.4C213.737 110.133 213.417 109.853 213.071 109.56C212.724 109.267 212.297 109.013 211.791 108.8C211.311 108.56 210.671 108.44 209.871 108.44C208.857 108.44 208.084 108.667 207.551 109.12C207.017 109.547 206.751 110.093 206.751 110.76C206.751 111.213 206.871 111.613 207.111 111.96C207.377 112.28 207.897 112.587 208.671 112.88C209.444 113.173 210.617 113.48 212.191 113.8C213.977 114.12 215.391 114.6 216.431 115.24C217.497 115.853 218.244 116.573 218.671 117.4C219.124 118.2 219.351 119.093 219.351 120.08C219.351 121.28 218.991 122.36 218.271 123.32C217.577 124.28 216.537 125.04 215.151 125.6C213.791 126.133 212.097 126.4 210.071 126.4ZM234.06 126C233.794 126 233.567 125.907 233.38 125.72C233.194 125.533 233.1 125.307 233.1 125.04V99C233.1 98.7067 233.194 98.4667 233.38 98.28C233.567 98.0933 233.794 98 234.06 98H244.78C246.86 98 248.674 98.3333 250.22 99C251.767 99.64 252.967 100.627 253.82 101.96C254.674 103.267 255.1 104.907 255.1 106.88C255.1 108.88 254.674 110.533 253.82 111.84C252.967 113.12 251.767 114.08 250.22 114.72C248.674 115.36 246.86 115.68 244.78 115.68H238.82V125.04C238.82 125.307 238.727 125.533 238.54 125.72C238.38 125.907 238.154 126 237.86 126H234.06ZM238.74 111.24H244.58C246.127 111.24 247.314 110.88 248.14 110.16C248.967 109.413 249.38 108.32 249.38 106.88C249.38 105.547 248.994 104.48 248.22 103.68C247.447 102.853 246.234 102.44 244.58 102.44H238.74V111.24ZM264.598 126.4C263.211 126.4 261.958 126.133 260.838 125.6C259.718 125.04 258.825 124.307 258.158 123.4C257.518 122.467 257.198 121.427 257.198 120.28C257.198 118.413 257.945 116.933 259.438 115.84C260.958 114.72 262.958 113.973 265.438 113.6L270.918 112.8V111.96C270.918 110.84 270.638 109.973 270.078 109.36C269.518 108.747 268.558 108.44 267.198 108.44C266.238 108.44 265.451 108.64 264.838 109.04C264.251 109.413 263.811 109.92 263.518 110.56C263.305 110.907 262.998 111.08 262.598 111.08H259.438C259.145 111.08 258.918 111 258.758 110.84C258.625 110.68 258.558 110.467 258.558 110.2C258.585 109.773 258.758 109.253 259.078 108.64C259.398 108.027 259.905 107.44 260.598 106.88C261.291 106.293 262.185 105.8 263.278 105.4C264.371 105 265.691 104.8 267.238 104.8C268.918 104.8 270.331 105.013 271.478 105.44C272.651 105.84 273.585 106.387 274.278 107.08C274.971 107.773 275.478 108.587 275.798 109.52C276.118 110.453 276.278 111.44 276.278 112.48V125.04C276.278 125.307 276.185 125.533 275.998 125.72C275.811 125.907 275.585 126 275.318 126H272.078C271.785 126 271.545 125.907 271.358 125.72C271.198 125.533 271.118 125.307 271.118 125.04V123.48C270.771 123.987 270.305 124.467 269.718 124.92C269.131 125.347 268.411 125.707 267.558 126C266.731 126.267 265.745 126.4 264.598 126.4ZM265.958 122.6C266.891 122.6 267.731 122.4 268.478 122C269.251 121.6 269.851 120.987 270.278 120.16C270.731 119.307 270.958 118.24 270.958 116.96V116.12L266.958 116.76C265.385 117 264.211 117.387 263.438 117.92C262.665 118.453 262.278 119.107 262.278 119.88C262.278 120.467 262.451 120.973 262.798 121.4C263.171 121.8 263.638 122.107 264.198 122.32C264.758 122.507 265.345 122.6 265.958 122.6ZM290.614 126C289.014 126 287.668 125.72 286.574 125.16C285.481 124.6 284.668 123.773 284.134 122.68C283.601 121.56 283.334 120.173 283.334 118.52V109.44H280.174C279.908 109.44 279.681 109.347 279.494 109.16C279.308 108.973 279.214 108.747 279.214 108.48V106.16C279.214 105.893 279.308 105.667 279.494 105.48C279.681 105.293 279.908 105.2 280.174 105.2H283.334V98.56C283.334 98.2933 283.414 98.0667 283.574 97.88C283.761 97.6933 284.001 97.6 284.294 97.6H287.534C287.801 97.6 288.028 97.6933 288.214 97.88C288.401 98.0667 288.494 98.2933 288.494 98.56V105.2H293.494C293.761 105.2 293.988 105.293 294.174 105.48C294.361 105.667 294.454 105.893 294.454 106.16V108.48C294.454 108.747 294.361 108.973 294.174 109.16C293.988 109.347 293.761 109.44 293.494 109.44H288.494V118.12C288.494 119.213 288.681 120.067 289.054 120.68C289.454 121.293 290.134 121.6 291.094 121.6H293.854C294.121 121.6 294.348 121.693 294.534 121.88C294.721 122.067 294.814 122.293 294.814 122.56V125.04C294.814 125.307 294.721 125.533 294.534 125.72C294.348 125.907 294.121 126 293.854 126H290.614ZM299.363 126C299.096 126 298.869 125.907 298.683 125.72C298.496 125.533 298.403 125.307 298.403 125.04V98.56C298.403 98.2933 298.496 98.0667 298.683 97.88C298.869 97.6933 299.096 97.6 299.363 97.6H302.923C303.216 97.6 303.443 97.6933 303.603 97.88C303.789 98.0667 303.883 98.2933 303.883 98.56V107.68C304.603 106.827 305.483 106.133 306.523 105.6C307.563 105.067 308.843 104.8 310.363 104.8C311.989 104.8 313.403 105.173 314.603 105.92C315.829 106.64 316.776 107.667 317.443 109C318.109 110.333 318.443 111.933 318.443 113.8V125.04C318.443 125.307 318.349 125.533 318.163 125.72C317.976 125.907 317.749 126 317.483 126H313.883C313.616 126 313.389 125.907 313.203 125.72C313.016 125.533 312.923 125.307 312.923 125.04V114.04C312.923 112.493 312.536 111.28 311.763 110.4C311.016 109.52 309.923 109.08 308.483 109.08C307.096 109.08 305.976 109.52 305.123 110.4C304.296 111.28 303.883 112.493 303.883 114.04V125.04C303.883 125.307 303.789 125.533 303.603 125.72C303.443 125.907 303.216 126 302.923 126H299.363Z" fill="#FFE600"/>
<path d="M190.676 304.034C189.88 303.005 189.39 301.773 189.26 300.479C189.129 299.185 189.365 297.88 189.939 296.713C191.446 293.785 192.037 290.437 191.652 287.14C191.336 284.788 190.559 282.521 189.366 280.47C188.187 278.446 186.612 276.681 184.733 275.281C178.331 270.47 173.839 263.548 172.052 255.742C157.427 274.913 163.036 285.796 170.04 295.386C170.861 296.51 171.294 297.871 171.272 299.264C171.25 300.656 170.776 302.003 169.92 303.101C169.048 304.212 167.878 305.053 166.546 305.524C165.23 305.986 163.808 306.055 162.454 305.721C152.992 303.409 144.087 299.008 138.05 291.995C134.629 288.1 131.994 283.578 130.293 278.681C128.572 273.741 127.808 268.519 128.041 263.294C128.041 263.294 126.902 242.204 152.333 221.543C152.333 221.543 182.387 196.044 171.958 177.189C171.574 176.262 171.46 175.245 171.63 174.255C171.799 173.266 172.246 172.344 172.917 171.598C173.57 170.866 174.431 170.353 175.386 170.128C176.34 169.903 177.341 169.976 178.251 170.339L179.502 170.836C190.822 177.992 199.67 188.454 204.847 200.805C209.813 212.904 209.779 227.006 206.422 239.567C209.205 237.067 211.525 234.079 213.281 230.722L213.529 230.174C215.224 226.09 220.559 227.391 222.562 230.063C223.299 231.236 242.188 258.687 232.041 281.849C228.331 288.866 222.913 294.835 216.286 299.205C210.726 302.895 204.512 305.49 197.979 306.851C196.629 307.136 195.225 307.023 193.938 306.526C192.639 306.021 191.508 305.16 190.676 304.043V304.034ZM175.554 237.581C176.354 237.164 177.28 237.061 178.151 237.293C179.023 237.524 179.776 238.072 180.264 238.831C180.606 239.336 180.829 239.91 180.906 240.526L181.291 243.514C181.462 247.89 181.411 252.462 183.115 256.666C184.879 260.982 187.619 264.801 191.095 267.781C195.574 270.727 199.04 274.977 201.028 279.956C202.911 284.786 203.168 290.146 201.747 295.138C206.096 293.766 210.137 291.565 213.649 288.656L214.531 287.937C217.408 285.565 219.78 282.602 221.492 279.229C223.213 275.864 224.249 272.165 224.523 268.363C225.08 259.586 222.091 250.775 217.442 242.915C215.318 245.998 212.39 248.387 209.008 249.799C206.893 250.698 204.65 251.255 202.363 251.426C201.054 251.51 199.748 251.213 198.604 250.57C197.443 249.91 196.491 248.937 195.856 247.761C195.331 246.814 195.03 245.758 194.978 244.675C194.926 243.593 195.124 242.513 195.556 241.519C199.084 233.197 200.18 223.966 198.682 215.001C196.908 204.745 191.995 195.291 184.622 187.944C183.286 206.824 163.926 224.403 159.953 228.188C159.337 228.768 158.698 229.322 158.035 229.849C137.263 246.674 138.684 262.001 138.684 262.677C138.272 268.766 139.637 274.843 142.614 280.171C145.74 285.693 150.235 290.249 155.629 293.357C149.404 279.674 149.404 263.251 172.378 239.704L175.563 237.564L175.554 237.581Z" fill="url(#paint0_linear_10_2)"/>
<defs>
<linearGradient id="paint0_linear_10_2" x1="181.515" y1="170" x2="181.873" y2="311.505" gradientUnits="userSpaceOnUse">
<stop stop-color="#FFE600"/>
<stop offset="1" stop-color="#862000"/>
</linearGradient>
</defs>
</svg>
