<svg width="456" height="456" viewBox="0 0 456 456" fill="none" xmlns="http://www.w3.org/2000/svg">
<path d="M156.404 215C156.124 215 155.9 214.925 155.732 214.776C155.583 214.608 155.48 214.403 155.424 214.16L152.092 196.212C152.092 196.156 152.083 196.109 152.064 196.072C152.064 196.035 152.064 196.007 152.064 195.988C152.064 195.82 152.12 195.68 152.232 195.568C152.363 195.456 152.503 195.4 152.652 195.4H155.116C155.583 195.4 155.844 195.587 155.9 195.96L158.224 208.644L160.744 200.44C160.8 200.291 160.893 200.141 161.024 199.992C161.173 199.824 161.388 199.74 161.668 199.74H163.18C163.479 199.74 163.693 199.824 163.824 199.992C163.955 200.141 164.039 200.291 164.076 200.44L166.624 208.616L168.948 195.96C169.004 195.587 169.265 195.4 169.732 195.4H172.196C172.345 195.4 172.476 195.456 172.588 195.568C172.7 195.68 172.756 195.82 172.756 195.988C172.756 196.007 172.756 196.035 172.756 196.072C172.756 196.109 172.747 196.156 172.728 196.212L169.396 214.16C169.359 214.403 169.256 214.608 169.088 214.776C168.92 214.925 168.696 215 168.416 215H166.54C166.26 215 166.036 214.925 165.868 214.776C165.719 214.627 165.616 214.468 165.56 214.3L162.424 204.948L159.288 214.3C159.213 214.468 159.101 214.627 158.952 214.776C158.803 214.925 158.579 215 158.28 215H156.404ZM181.405 215.28C179.333 215.28 177.69 214.683 176.477 213.488C175.264 212.293 174.61 210.595 174.517 208.392C174.498 208.205 174.489 207.972 174.489 207.692C174.489 207.393 174.498 207.16 174.517 206.992C174.592 205.592 174.909 204.379 175.469 203.352C176.048 202.325 176.841 201.541 177.849 201C178.857 200.44 180.042 200.16 181.405 200.16C182.917 200.16 184.186 200.477 185.213 201.112C186.24 201.728 187.014 202.596 187.537 203.716C188.06 204.817 188.321 206.096 188.321 207.552V208.14C188.321 208.327 188.256 208.485 188.125 208.616C187.994 208.747 187.826 208.812 187.621 208.812H178.325C178.325 208.812 178.325 208.84 178.325 208.896C178.325 208.952 178.325 208.999 178.325 209.036C178.344 209.689 178.465 210.296 178.689 210.856C178.932 211.397 179.277 211.836 179.725 212.172C180.192 212.508 180.742 212.676 181.377 212.676C181.9 212.676 182.338 212.601 182.693 212.452C183.048 212.284 183.337 212.097 183.561 211.892C183.785 211.687 183.944 211.519 184.037 211.388C184.205 211.164 184.336 211.033 184.429 210.996C184.541 210.94 184.7 210.912 184.905 210.912H187.313C187.5 210.912 187.649 210.968 187.761 211.08C187.892 211.192 187.948 211.332 187.929 211.5C187.91 211.799 187.752 212.163 187.453 212.592C187.173 213.021 186.762 213.441 186.221 213.852C185.68 214.263 184.998 214.608 184.177 214.888C183.374 215.149 182.45 215.28 181.405 215.28ZM178.325 206.46H184.513V206.376C184.513 205.648 184.392 205.013 184.149 204.472C183.906 203.931 183.552 203.501 183.085 203.184C182.618 202.867 182.058 202.708 181.405 202.708C180.752 202.708 180.192 202.867 179.725 203.184C179.258 203.501 178.904 203.931 178.661 204.472C178.437 205.013 178.325 205.648 178.325 206.376V206.46ZM191.993 215C191.807 215 191.648 214.935 191.517 214.804C191.387 214.673 191.321 214.515 191.321 214.328V195.792C191.321 195.605 191.387 195.447 191.517 195.316C191.648 195.185 191.807 195.12 191.993 195.12H194.317C194.504 195.12 194.663 195.185 194.793 195.316C194.924 195.447 194.989 195.605 194.989 195.792V214.328C194.989 214.515 194.924 214.673 194.793 214.804C194.663 214.935 194.504 215 194.317 215H191.993ZM205.003 215.28C203.659 215.28 202.474 215.028 201.447 214.524C200.439 214.02 199.646 213.292 199.067 212.34C198.507 211.369 198.199 210.203 198.143 208.84C198.125 208.56 198.115 208.196 198.115 207.748C198.115 207.281 198.125 206.899 198.143 206.6C198.199 205.237 198.507 204.08 199.067 203.128C199.646 202.157 200.439 201.42 201.447 200.916C202.474 200.412 203.659 200.16 205.003 200.16C206.198 200.16 207.215 200.328 208.055 200.664C208.895 201 209.586 201.42 210.127 201.924C210.669 202.428 211.07 202.96 211.331 203.52C211.611 204.061 211.761 204.556 211.779 205.004C211.798 205.209 211.733 205.377 211.583 205.508C211.453 205.62 211.294 205.676 211.107 205.676H208.643C208.457 205.676 208.307 205.629 208.195 205.536C208.102 205.443 208.009 205.303 207.915 205.116C207.635 204.369 207.262 203.847 206.795 203.548C206.347 203.231 205.769 203.072 205.059 203.072C204.126 203.072 203.379 203.371 202.819 203.968C202.278 204.547 201.989 205.471 201.951 206.74C201.914 207.449 201.914 208.103 201.951 208.7C201.989 209.988 202.278 210.921 202.819 211.5C203.379 212.079 204.126 212.368 205.059 212.368C205.787 212.368 206.375 212.219 206.823 211.92C207.271 211.603 207.635 211.071 207.915 210.324C208.009 210.137 208.102 209.997 208.195 209.904C208.307 209.811 208.457 209.764 208.643 209.764H211.107C211.294 209.764 211.453 209.829 211.583 209.96C211.733 210.072 211.798 210.231 211.779 210.436C211.761 210.772 211.667 211.155 211.499 211.584C211.35 211.995 211.098 212.424 210.743 212.872C210.407 213.301 209.978 213.703 209.455 214.076C208.933 214.431 208.298 214.72 207.551 214.944C206.823 215.168 205.974 215.28 205.003 215.28ZM221.14 215.28C219.646 215.28 218.386 215.019 217.36 214.496C216.352 213.973 215.577 213.236 215.036 212.284C214.513 211.332 214.214 210.221 214.14 208.952C214.121 208.616 214.112 208.205 214.112 207.72C214.112 207.235 214.121 206.824 214.14 206.488C214.214 205.2 214.522 204.089 215.064 203.156C215.624 202.204 216.408 201.467 217.416 200.944C218.442 200.421 219.684 200.16 221.14 200.16C222.596 200.16 223.828 200.421 224.836 200.944C225.862 201.467 226.646 202.204 227.188 203.156C227.748 204.089 228.065 205.2 228.14 206.488C228.158 206.824 228.168 207.235 228.168 207.72C228.168 208.205 228.158 208.616 228.14 208.952C228.065 210.221 227.757 211.332 227.216 212.284C226.693 213.236 225.918 213.973 224.892 214.496C223.884 215.019 222.633 215.28 221.14 215.28ZM221.14 212.508C222.129 212.508 222.894 212.2 223.436 211.584C223.977 210.949 224.276 210.025 224.332 208.812C224.35 208.532 224.36 208.168 224.36 207.72C224.36 207.272 224.35 206.908 224.332 206.628C224.276 205.433 223.977 204.519 223.436 203.884C222.894 203.249 222.129 202.932 221.14 202.932C220.15 202.932 219.385 203.249 218.844 203.884C218.302 204.519 218.004 205.433 217.948 206.628C217.929 206.908 217.92 207.272 217.92 207.72C217.92 208.168 217.929 208.532 217.948 208.812C218.004 210.025 218.302 210.949 218.844 211.584C219.385 212.2 220.15 212.508 221.14 212.508ZM231.942 215C231.755 215 231.597 214.935 231.466 214.804C231.335 214.673 231.27 214.515 231.27 214.328V201.112C231.27 200.925 231.335 200.767 231.466 200.636C231.597 200.505 231.755 200.44 231.942 200.44H234.126C234.313 200.44 234.471 200.505 234.602 200.636C234.733 200.767 234.798 200.925 234.798 201.112V202.064C235.19 201.541 235.713 201.103 236.366 200.748C237.038 200.375 237.831 200.179 238.746 200.16C240.874 200.123 242.358 200.953 243.198 202.652C243.627 201.905 244.243 201.308 245.046 200.86C245.867 200.393 246.773 200.16 247.762 200.16C248.733 200.16 249.61 200.384 250.394 200.832C251.197 201.28 251.822 201.961 252.27 202.876C252.737 203.772 252.97 204.911 252.97 206.292V214.328C252.97 214.515 252.905 214.673 252.774 214.804C252.643 214.935 252.485 215 252.298 215H250.002C249.815 215 249.657 214.935 249.526 214.804C249.395 214.673 249.33 214.515 249.33 214.328V206.516C249.33 205.676 249.209 205.013 248.966 204.528C248.723 204.024 248.397 203.669 247.986 203.464C247.575 203.259 247.118 203.156 246.614 203.156C246.203 203.156 245.793 203.259 245.382 203.464C244.971 203.669 244.635 204.024 244.374 204.528C244.113 205.013 243.982 205.676 243.982 206.516V214.328C243.982 214.515 243.917 214.673 243.786 214.804C243.655 214.935 243.497 215 243.31 215H241.014C240.809 215 240.641 214.935 240.51 214.804C240.398 214.673 240.342 214.515 240.342 214.328V206.516C240.342 205.676 240.211 205.013 239.95 204.528C239.689 204.024 239.353 203.669 238.942 203.464C238.531 203.259 238.093 203.156 237.626 203.156C237.197 203.156 236.777 203.268 236.366 203.492C235.955 203.697 235.619 204.043 235.358 204.528C235.097 205.013 234.966 205.676 234.966 206.516V214.328C234.966 214.515 234.901 214.673 234.77 214.804C234.639 214.935 234.481 215 234.294 215H231.942ZM262.808 215.28C260.736 215.28 259.093 214.683 257.88 213.488C256.666 212.293 256.013 210.595 255.92 208.392C255.901 208.205 255.892 207.972 255.892 207.692C255.892 207.393 255.901 207.16 255.92 206.992C255.994 205.592 256.312 204.379 256.872 203.352C257.45 202.325 258.244 201.541 259.252 201C260.26 200.44 261.445 200.16 262.808 200.16C264.32 200.16 265.589 200.477 266.616 201.112C267.642 201.728 268.417 202.596 268.94 203.716C269.462 204.817 269.724 206.096 269.724 207.552V208.14C269.724 208.327 269.658 208.485 269.528 208.616C269.397 208.747 269.229 208.812 269.024 208.812H259.728C259.728 208.812 259.728 208.84 259.728 208.896C259.728 208.952 259.728 208.999 259.728 209.036C259.746 209.689 259.868 210.296 260.092 210.856C260.334 211.397 260.68 211.836 261.128 212.172C261.594 212.508 262.145 212.676 262.78 212.676C263.302 212.676 263.741 212.601 264.096 212.452C264.45 212.284 264.74 212.097 264.964 211.892C265.188 211.687 265.346 211.519 265.44 211.388C265.608 211.164 265.738 211.033 265.832 210.996C265.944 210.94 266.102 210.912 266.308 210.912H268.716C268.902 210.912 269.052 210.968 269.164 211.08C269.294 211.192 269.35 211.332 269.332 211.5C269.313 211.799 269.154 212.163 268.856 212.592C268.576 213.021 268.165 213.441 267.624 213.852C267.082 214.263 266.401 214.608 265.58 214.888C264.777 215.149 263.853 215.28 262.808 215.28ZM259.728 206.46H265.916V206.376C265.916 205.648 265.794 205.013 265.552 204.472C265.309 203.931 264.954 203.501 264.488 203.184C264.021 202.867 263.461 202.708 262.808 202.708C262.154 202.708 261.594 202.867 261.128 203.184C260.661 203.501 260.306 203.931 260.064 204.472C259.84 205.013 259.728 205.648 259.728 206.376V206.46ZM285.1 215C283.98 215 283.037 214.804 282.272 214.412C281.507 214.02 280.937 213.441 280.564 212.676C280.191 211.892 280.004 210.921 280.004 209.764V203.408H277.792C277.605 203.408 277.447 203.343 277.316 203.212C277.185 203.081 277.12 202.923 277.12 202.736V201.112C277.12 200.925 277.185 200.767 277.316 200.636C277.447 200.505 277.605 200.44 277.792 200.44H280.004V195.792C280.004 195.605 280.06 195.447 280.172 195.316C280.303 195.185 280.471 195.12 280.676 195.12H282.944C283.131 195.12 283.289 195.185 283.42 195.316C283.551 195.447 283.616 195.605 283.616 195.792V200.44H287.116C287.303 200.44 287.461 200.505 287.592 200.636C287.723 200.767 287.788 200.925 287.788 201.112V202.736C287.788 202.923 287.723 203.081 287.592 203.212C287.461 203.343 287.303 203.408 287.116 203.408H283.616V209.484C283.616 210.249 283.747 210.847 284.008 211.276C284.288 211.705 284.764 211.92 285.436 211.92H287.368C287.555 211.92 287.713 211.985 287.844 212.116C287.975 212.247 288.04 212.405 288.04 212.592V214.328C288.04 214.515 287.975 214.673 287.844 214.804C287.713 214.935 287.555 215 287.368 215H285.1ZM296.964 215.28C295.47 215.28 294.21 215.019 293.184 214.496C292.176 213.973 291.401 213.236 290.86 212.284C290.337 211.332 290.038 210.221 289.964 208.952C289.945 208.616 289.936 208.205 289.936 207.72C289.936 207.235 289.945 206.824 289.964 206.488C290.038 205.2 290.346 204.089 290.888 203.156C291.448 202.204 292.232 201.467 293.24 200.944C294.266 200.421 295.508 200.16 296.964 200.16C298.42 200.16 299.652 200.421 300.66 200.944C301.686 201.467 302.47 202.204 303.012 203.156C303.572 204.089 303.889 205.2 303.964 206.488C303.982 206.824 303.992 207.235 303.992 207.72C303.992 208.205 303.982 208.616 303.964 208.952C303.889 210.221 303.581 211.332 303.04 212.284C302.517 213.236 301.742 213.973 300.716 214.496C299.708 215.019 298.457 215.28 296.964 215.28ZM296.964 212.508C297.953 212.508 298.718 212.2 299.26 211.584C299.801 210.949 300.1 210.025 300.156 208.812C300.174 208.532 300.184 208.168 300.184 207.72C300.184 207.272 300.174 206.908 300.156 206.628C300.1 205.433 299.801 204.519 299.26 203.884C298.718 203.249 297.953 202.932 296.964 202.932C295.974 202.932 295.209 203.249 294.668 203.884C294.126 204.519 293.828 205.433 293.772 206.628C293.753 206.908 293.744 207.272 293.744 207.72C293.744 208.168 293.753 208.532 293.772 208.812C293.828 210.025 294.126 210.949 294.668 211.584C295.209 212.2 295.974 212.508 296.964 212.508Z" fill="white"/>
<path d="M91.5211 259C91.3078 259 91.1078 258.92 90.9211 258.76C90.7611 258.6 90.6811 258.4 90.6811 258.16C90.6811 258.053 90.7078 257.933 90.7611 257.8L100.401 232C100.481 231.733 100.628 231.507 100.841 231.32C101.081 231.107 101.401 231 101.801 231H106.161C106.561 231 106.868 231.107 107.081 231.32C107.294 231.507 107.454 231.733 107.561 232L117.201 257.8C117.228 257.933 117.241 258.053 117.241 258.16C117.241 258.4 117.161 258.6 117.001 258.76C116.841 258.92 116.654 259 116.441 259H112.961C112.588 259 112.308 258.92 112.121 258.76C111.961 258.573 111.854 258.4 111.801 258.24L109.921 253.36H98.0411L96.1611 258.24C96.1078 258.4 95.9878 258.573 95.8011 258.76C95.6411 258.92 95.3744 259 95.0011 259H91.5211ZM99.4411 248.76H108.521L103.961 236.4L99.4411 248.76ZM121.495 266.6C121.229 266.6 121.002 266.507 120.815 266.32C120.629 266.133 120.535 265.907 120.535 265.64V239.16C120.535 238.893 120.629 238.667 120.815 238.48C121.002 238.293 121.229 238.2 121.495 238.2H124.655C124.949 238.2 125.175 238.293 125.335 238.48C125.522 238.667 125.615 238.893 125.615 239.16V240.76C126.255 239.907 127.095 239.2 128.135 238.64C129.175 238.08 130.469 237.8 132.015 237.8C133.429 237.8 134.655 238.027 135.695 238.48C136.735 238.933 137.602 239.587 138.295 240.44C138.989 241.267 139.522 242.253 139.895 243.4C140.269 244.547 140.482 245.813 140.535 247.2C140.562 247.653 140.575 248.12 140.575 248.6C140.575 249.08 140.562 249.56 140.535 250.04C140.509 251.373 140.309 252.613 139.935 253.76C139.562 254.88 139.015 255.867 138.295 256.72C137.602 257.547 136.735 258.2 135.695 258.68C134.655 259.16 133.429 259.4 132.015 259.4C130.575 259.4 129.349 259.147 128.335 258.64C127.322 258.107 126.495 257.413 125.855 256.56V265.64C125.855 265.907 125.762 266.133 125.575 266.32C125.415 266.507 125.189 266.6 124.895 266.6H121.495ZM130.535 255.12C131.682 255.12 132.575 254.88 133.215 254.4C133.855 253.893 134.309 253.24 134.575 252.44C134.869 251.64 135.042 250.76 135.095 249.8C135.149 249 135.149 248.2 135.095 247.4C135.042 246.44 134.869 245.56 134.575 244.76C134.309 243.96 133.855 243.32 133.215 242.84C132.575 242.333 131.682 242.08 130.535 242.08C129.442 242.08 128.549 242.333 127.855 242.84C127.189 243.347 126.695 244 126.375 244.8C126.082 245.573 125.909 246.373 125.855 247.2C125.829 247.68 125.815 248.187 125.815 248.72C125.815 249.253 125.829 249.773 125.855 250.28C125.882 251.08 126.069 251.853 126.415 252.6C126.762 253.32 127.269 253.92 127.935 254.4C128.602 254.88 129.469 255.12 130.535 255.12ZM154.266 259.4C152.132 259.4 150.332 259.027 148.866 258.28C147.426 257.533 146.319 256.48 145.546 255.12C144.799 253.76 144.372 252.173 144.266 250.36C144.239 249.88 144.226 249.293 144.226 248.6C144.226 247.907 144.239 247.32 144.266 246.84C144.372 245 144.812 243.413 145.586 242.08C146.386 240.72 147.506 239.667 148.946 238.92C150.412 238.173 152.186 237.8 154.266 237.8C156.346 237.8 158.106 238.173 159.546 238.92C161.012 239.667 162.132 240.72 162.906 242.08C163.706 243.413 164.159 245 164.266 246.84C164.292 247.32 164.306 247.907 164.306 248.6C164.306 249.293 164.292 249.88 164.266 250.36C164.159 252.173 163.719 253.76 162.946 255.12C162.199 256.48 161.092 257.533 159.626 258.28C158.186 259.027 156.399 259.4 154.266 259.4ZM154.266 255.44C155.679 255.44 156.772 255 157.546 254.12C158.319 253.213 158.746 251.893 158.826 250.16C158.852 249.76 158.866 249.24 158.866 248.6C158.866 247.96 158.852 247.44 158.826 247.04C158.746 245.333 158.319 244.027 157.546 243.12C156.772 242.213 155.679 241.76 154.266 241.76C152.852 241.76 151.759 242.213 150.986 243.12C150.212 244.027 149.786 245.333 149.706 247.04C149.679 247.44 149.666 247.96 149.666 248.6C149.666 249.24 149.679 249.76 149.706 250.16C149.786 251.893 150.212 253.213 150.986 254.12C151.759 255 152.852 255.44 154.266 255.44ZM176.618 259.4C175.018 259.4 173.644 259.213 172.498 258.84C171.378 258.467 170.458 258 169.738 257.44C169.018 256.88 168.484 256.32 168.138 255.76C167.791 255.2 167.604 254.733 167.578 254.36C167.551 254.067 167.631 253.84 167.818 253.68C168.031 253.493 168.258 253.4 168.498 253.4H171.658C171.764 253.4 171.858 253.413 171.938 253.44C172.018 253.467 172.124 253.547 172.258 253.68C172.604 253.973 172.964 254.28 173.338 254.6C173.738 254.92 174.204 255.2 174.738 255.44C175.271 255.653 175.938 255.76 176.738 255.76C177.778 255.76 178.644 255.56 179.338 255.16C180.058 254.733 180.418 254.133 180.418 253.36C180.418 252.8 180.258 252.347 179.938 252C179.644 251.653 179.084 251.347 178.258 251.08C177.431 250.787 176.258 250.48 174.738 250.16C173.244 249.813 172.004 249.373 171.018 248.84C170.031 248.307 169.298 247.64 168.818 246.84C168.338 246.04 168.098 245.107 168.098 244.04C168.098 243 168.404 242.013 169.018 241.08C169.658 240.12 170.591 239.333 171.818 238.72C173.071 238.107 174.618 237.8 176.458 237.8C177.898 237.8 179.151 237.987 180.218 238.36C181.284 238.707 182.164 239.147 182.858 239.68C183.578 240.213 184.124 240.76 184.498 241.32C184.871 241.853 185.071 242.32 185.098 242.72C185.124 243.013 185.044 243.253 184.858 243.44C184.671 243.6 184.458 243.68 184.218 243.68H181.258C181.124 243.68 181.004 243.653 180.898 243.6C180.791 243.547 180.684 243.48 180.578 243.4C180.284 243.133 179.964 242.853 179.618 242.56C179.271 242.267 178.844 242.013 178.338 241.8C177.858 241.56 177.218 241.44 176.418 241.44C175.404 241.44 174.631 241.667 174.098 242.12C173.564 242.547 173.298 243.093 173.298 243.76C173.298 244.213 173.418 244.613 173.658 244.96C173.924 245.28 174.444 245.587 175.218 245.88C175.991 246.173 177.164 246.48 178.738 246.8C180.524 247.12 181.938 247.6 182.978 248.24C184.044 248.853 184.791 249.573 185.218 250.4C185.671 251.2 185.898 252.093 185.898 253.08C185.898 254.28 185.538 255.36 184.818 256.32C184.124 257.28 183.084 258.04 181.698 258.6C180.338 259.133 178.644 259.4 176.618 259.4ZM199.349 259C197.749 259 196.402 258.72 195.309 258.16C194.215 257.6 193.402 256.773 192.869 255.68C192.335 254.56 192.069 253.173 192.069 251.52V242.44H188.909C188.642 242.44 188.415 242.347 188.229 242.16C188.042 241.973 187.949 241.747 187.949 241.48V239.16C187.949 238.893 188.042 238.667 188.229 238.48C188.415 238.293 188.642 238.2 188.909 238.2H192.069V231.56C192.069 231.293 192.149 231.067 192.309 230.88C192.495 230.693 192.735 230.6 193.029 230.6H196.269C196.535 230.6 196.762 230.693 196.949 230.88C197.135 231.067 197.229 231.293 197.229 231.56V238.2H202.229C202.495 238.2 202.722 238.293 202.909 238.48C203.095 238.667 203.189 238.893 203.189 239.16V241.48C203.189 241.747 203.095 241.973 202.909 242.16C202.722 242.347 202.495 242.44 202.229 242.44H197.229V251.12C197.229 252.213 197.415 253.067 197.789 253.68C198.189 254.293 198.869 254.6 199.829 254.6H202.589C202.855 254.6 203.082 254.693 203.269 254.88C203.455 255.067 203.549 255.293 203.549 255.56V258.04C203.549 258.307 203.455 258.533 203.269 258.72C203.082 258.907 202.855 259 202.589 259H199.349ZM208.097 259C207.83 259 207.604 258.907 207.417 258.72C207.23 258.533 207.137 258.307 207.137 258.04V231.56C207.137 231.293 207.23 231.067 207.417 230.88C207.604 230.693 207.83 230.6 208.097 230.6H211.417C211.684 230.6 211.91 230.693 212.097 230.88C212.284 231.067 212.377 231.293 212.377 231.56V258.04C212.377 258.307 212.284 258.533 212.097 258.72C211.91 258.907 211.684 259 211.417 259H208.097ZM226.643 259.4C223.683 259.4 221.336 258.547 219.603 256.84C217.87 255.133 216.936 252.707 216.803 249.56C216.776 249.293 216.763 248.96 216.763 248.56C216.763 248.133 216.776 247.8 216.803 247.56C216.91 245.56 217.363 243.827 218.163 242.36C218.99 240.893 220.123 239.773 221.563 239C223.003 238.2 224.696 237.8 226.643 237.8C228.803 237.8 230.616 238.253 232.083 239.16C233.55 240.04 234.656 241.28 235.403 242.88C236.15 244.453 236.523 246.28 236.523 248.36V249.2C236.523 249.467 236.43 249.693 236.243 249.88C236.056 250.067 235.816 250.16 235.523 250.16H222.243C222.243 250.16 222.243 250.2 222.243 250.28C222.243 250.36 222.243 250.427 222.243 250.48C222.27 251.413 222.443 252.28 222.763 253.08C223.11 253.853 223.603 254.48 224.243 254.96C224.91 255.44 225.696 255.68 226.603 255.68C227.35 255.68 227.976 255.573 228.483 255.36C228.99 255.12 229.403 254.853 229.723 254.56C230.043 254.267 230.27 254.027 230.403 253.84C230.643 253.52 230.83 253.333 230.963 253.28C231.123 253.2 231.35 253.16 231.643 253.16H235.083C235.35 253.16 235.563 253.24 235.723 253.4C235.91 253.56 235.99 253.76 235.963 254C235.936 254.427 235.71 254.947 235.283 255.56C234.883 256.173 234.296 256.773 233.523 257.36C232.75 257.947 231.776 258.44 230.603 258.84C229.456 259.213 228.136 259.4 226.643 259.4ZM222.243 246.8H231.083V246.68C231.083 245.64 230.91 244.733 230.563 243.96C230.216 243.187 229.71 242.573 229.043 242.12C228.376 241.667 227.576 241.44 226.643 241.44C225.71 241.44 224.91 241.667 224.243 242.12C223.576 242.573 223.07 243.187 222.723 243.96C222.403 244.733 222.243 245.64 222.243 246.68V246.8ZM239.754 239.52C239.514 239.52 239.328 239.44 239.194 239.28C239.061 239.12 239.008 238.907 239.034 238.64L240.114 231.88C240.168 231.533 240.288 231.24 240.474 231C240.688 230.733 240.994 230.6 241.394 230.6H245.074C245.288 230.6 245.461 230.68 245.594 230.84C245.728 230.973 245.794 231.133 245.794 231.32C245.794 231.507 245.754 231.693 245.674 231.88L243.114 238.48C243.008 238.747 242.848 238.987 242.634 239.2C242.448 239.413 242.168 239.52 241.794 239.52H239.754ZM256.071 259.4C254.471 259.4 253.097 259.213 251.951 258.84C250.831 258.467 249.911 258 249.191 257.44C248.471 256.88 247.937 256.32 247.591 255.76C247.244 255.2 247.057 254.733 247.031 254.36C247.004 254.067 247.084 253.84 247.271 253.68C247.484 253.493 247.711 253.4 247.951 253.4H251.111C251.217 253.4 251.311 253.413 251.391 253.44C251.471 253.467 251.577 253.547 251.711 253.68C252.057 253.973 252.417 254.28 252.791 254.6C253.191 254.92 253.657 255.2 254.191 255.44C254.724 255.653 255.391 255.76 256.191 255.76C257.231 255.76 258.097 255.56 258.791 255.16C259.511 254.733 259.871 254.133 259.871 253.36C259.871 252.8 259.711 252.347 259.391 252C259.097 251.653 258.537 251.347 257.711 251.08C256.884 250.787 255.711 250.48 254.191 250.16C252.697 249.813 251.457 249.373 250.471 248.84C249.484 248.307 248.751 247.64 248.271 246.84C247.791 246.04 247.551 245.107 247.551 244.04C247.551 243 247.857 242.013 248.471 241.08C249.111 240.12 250.044 239.333 251.271 238.72C252.524 238.107 254.071 237.8 255.911 237.8C257.351 237.8 258.604 237.987 259.671 238.36C260.737 238.707 261.617 239.147 262.311 239.68C263.031 240.213 263.577 240.76 263.951 241.32C264.324 241.853 264.524 242.32 264.551 242.72C264.577 243.013 264.497 243.253 264.311 243.44C264.124 243.6 263.911 243.68 263.671 243.68H260.711C260.577 243.68 260.457 243.653 260.351 243.6C260.244 243.547 260.137 243.48 260.031 243.4C259.737 243.133 259.417 242.853 259.071 242.56C258.724 242.267 258.297 242.013 257.791 241.8C257.311 241.56 256.671 241.44 255.871 241.44C254.857 241.44 254.084 241.667 253.551 242.12C253.017 242.547 252.751 243.093 252.751 243.76C252.751 244.213 252.871 244.613 253.111 244.96C253.377 245.28 253.897 245.587 254.671 245.88C255.444 246.173 256.617 246.48 258.191 246.8C259.977 247.12 261.391 247.6 262.431 248.24C263.497 248.853 264.244 249.573 264.671 250.4C265.124 251.2 265.351 252.093 265.351 253.08C265.351 254.28 264.991 255.36 264.271 256.32C263.577 257.28 262.537 258.04 261.151 258.6C259.791 259.133 258.097 259.4 256.071 259.4ZM280.06 259C279.794 259 279.567 258.907 279.38 258.72C279.194 258.533 279.1 258.307 279.1 258.04V232C279.1 231.707 279.194 231.467 279.38 231.28C279.567 231.093 279.794 231 280.06 231H290.78C292.86 231 294.674 231.333 296.22 232C297.767 232.64 298.967 233.627 299.82 234.96C300.674 236.267 301.1 237.907 301.1 239.88C301.1 241.88 300.674 243.533 299.82 244.84C298.967 246.12 297.767 247.08 296.22 247.72C294.674 248.36 292.86 248.68 290.78 248.68H284.82V258.04C284.82 258.307 284.727 258.533 284.54 258.72C284.38 258.907 284.154 259 283.86 259H280.06ZM284.74 244.24H290.58C292.127 244.24 293.314 243.88 294.14 243.16C294.967 242.413 295.38 241.32 295.38 239.88C295.38 238.547 294.994 237.48 294.22 236.68C293.447 235.853 292.234 235.44 290.58 235.44H284.74V244.24ZM310.598 259.4C309.211 259.4 307.958 259.133 306.838 258.6C305.718 258.04 304.825 257.307 304.158 256.4C303.518 255.467 303.198 254.427 303.198 253.28C303.198 251.413 303.945 249.933 305.438 248.84C306.958 247.72 308.958 246.973 311.438 246.6L316.918 245.8V244.96C316.918 243.84 316.638 242.973 316.078 242.36C315.518 241.747 314.558 241.44 313.198 241.44C312.238 241.44 311.451 241.64 310.838 242.04C310.251 242.413 309.811 242.92 309.518 243.56C309.305 243.907 308.998 244.08 308.598 244.08H305.438C305.145 244.08 304.918 244 304.758 243.84C304.625 243.68 304.558 243.467 304.558 243.2C304.585 242.773 304.758 242.253 305.078 241.64C305.398 241.027 305.905 240.44 306.598 239.88C307.291 239.293 308.185 238.8 309.278 238.4C310.371 238 311.691 237.8 313.238 237.8C314.918 237.8 316.331 238.013 317.478 238.44C318.651 238.84 319.585 239.387 320.278 240.08C320.971 240.773 321.478 241.587 321.798 242.52C322.118 243.453 322.278 244.44 322.278 245.48V258.04C322.278 258.307 322.185 258.533 321.998 258.72C321.811 258.907 321.585 259 321.318 259H318.078C317.785 259 317.545 258.907 317.358 258.72C317.198 258.533 317.118 258.307 317.118 258.04V256.48C316.771 256.987 316.305 257.467 315.718 257.92C315.131 258.347 314.411 258.707 313.558 259C312.731 259.267 311.745 259.4 310.598 259.4ZM311.958 255.6C312.891 255.6 313.731 255.4 314.478 255C315.251 254.6 315.851 253.987 316.278 253.16C316.731 252.307 316.958 251.24 316.958 249.96V249.12L312.958 249.76C311.385 250 310.211 250.387 309.438 250.92C308.665 251.453 308.278 252.107 308.278 252.88C308.278 253.467 308.451 253.973 308.798 254.4C309.171 254.8 309.638 255.107 310.198 255.32C310.758 255.507 311.345 255.6 311.958 255.6ZM336.614 259C335.014 259 333.668 258.72 332.574 258.16C331.481 257.6 330.668 256.773 330.134 255.68C329.601 254.56 329.334 253.173 329.334 251.52V242.44H326.174C325.908 242.44 325.681 242.347 325.494 242.16C325.308 241.973 325.214 241.747 325.214 241.48V239.16C325.214 238.893 325.308 238.667 325.494 238.48C325.681 238.293 325.908 238.2 326.174 238.2H329.334V231.56C329.334 231.293 329.414 231.067 329.574 230.88C329.761 230.693 330.001 230.6 330.294 230.6H333.534C333.801 230.6 334.028 230.693 334.214 230.88C334.401 231.067 334.494 231.293 334.494 231.56V238.2H339.494C339.761 238.2 339.988 238.293 340.174 238.48C340.361 238.667 340.454 238.893 340.454 239.16V241.48C340.454 241.747 340.361 241.973 340.174 242.16C339.988 242.347 339.761 242.44 339.494 242.44H334.494V251.12C334.494 252.213 334.681 253.067 335.054 253.68C335.454 254.293 336.134 254.6 337.094 254.6H339.854C340.121 254.6 340.348 254.693 340.534 254.88C340.721 255.067 340.814 255.293 340.814 255.56V258.04C340.814 258.307 340.721 258.533 340.534 258.72C340.348 258.907 340.121 259 339.854 259H336.614ZM345.363 259C345.096 259 344.869 258.907 344.683 258.72C344.496 258.533 344.403 258.307 344.403 258.04V231.56C344.403 231.293 344.496 231.067 344.683 230.88C344.869 230.693 345.096 230.6 345.363 230.6H348.923C349.216 230.6 349.443 230.693 349.603 230.88C349.789 231.067 349.883 231.293 349.883 231.56V240.68C350.603 239.827 351.483 239.133 352.523 238.6C353.563 238.067 354.843 237.8 356.363 237.8C357.989 237.8 359.403 238.173 360.603 238.92C361.829 239.64 362.776 240.667 363.443 242C364.109 243.333 364.443 244.933 364.443 246.8V258.04C364.443 258.307 364.349 258.533 364.163 258.72C363.976 258.907 363.749 259 363.483 259H359.883C359.616 259 359.389 258.907 359.203 258.72C359.016 258.533 358.923 258.307 358.923 258.04V247.04C358.923 245.493 358.536 244.28 357.763 243.4C357.016 242.52 355.923 242.08 354.483 242.08C353.096 242.08 351.976 242.52 351.123 243.4C350.296 244.28 349.883 245.493 349.883 247.04V258.04C349.883 258.307 349.789 258.533 349.603 258.72C349.443 258.907 349.216 259 348.923 259H345.363Z" fill="#FFE600"/>
</svg>
