<svg width="193" height="192" viewBox="0 0 193 192" fill="none" xmlns="http://www.w3.org/2000/svg">
<rect x="0.873047" y="0.00538635" width="192" height="192" fill="#272727"/>
<path d="M104.19 147.659C103.566 146.847 103.181 145.876 103.079 144.856C102.976 143.836 103.161 142.807 103.612 141.887C104.795 139.579 105.258 136.94 104.956 134.341C104.708 132.487 104.098 130.7 103.162 129.083C102.237 127.487 101 126.096 99.5262 124.993C94.5018 121.2 90.9761 115.743 89.5736 109.59C78.0956 124.703 82.4973 133.282 87.9944 140.841C88.6389 141.727 88.9784 142.801 88.9614 143.898C88.9445 144.995 88.5719 146.057 87.9003 146.923C87.2159 147.799 86.2976 148.461 85.2526 148.833C84.2196 149.197 83.1033 149.251 82.0403 148.988C74.6146 147.166 67.6256 143.696 62.8879 138.168C60.2024 135.098 58.1347 131.533 56.7995 127.672C55.449 123.779 54.8492 119.662 55.0321 115.543C55.0321 115.543 54.1383 98.9184 74.0971 82.6312C74.0971 82.6312 97.6848 62.5303 89.4997 47.6673C89.1981 46.9362 89.1087 46.1343 89.2419 45.3543C89.3751 44.5743 89.7254 43.8481 90.2524 43.2597C90.7645 42.6828 91.441 42.2782 92.1899 42.1007C92.9389 41.9232 93.7241 41.9814 94.439 42.2675L95.4201 42.659C104.305 48.2998 111.249 56.5468 115.312 66.2832C119.209 75.8206 119.183 86.9375 116.548 96.8395C118.732 94.8685 120.553 92.5128 121.931 89.8669L122.126 89.4349C123.457 86.2153 127.643 87.2413 129.216 89.3472C129.794 90.2719 144.618 111.912 136.655 130.17C133.743 135.702 129.491 140.407 124.29 143.852C119.926 146.76 115.05 148.806 109.922 149.879C108.862 150.103 107.761 150.014 106.75 149.623C105.731 149.225 104.844 148.546 104.19 147.665V147.659ZM92.3222 95.2735C92.9496 94.9451 93.6766 94.864 94.3604 95.0464C95.0443 95.2287 95.6356 95.6612 96.0182 96.259C96.287 96.6572 96.4618 97.1094 96.5222 97.5954L96.8247 99.9511C96.9591 103.4 96.9187 107.005 98.256 110.319C99.6404 113.721 101.791 116.731 104.519 119.08C108.034 121.403 110.755 124.753 112.315 128.678C113.793 132.485 113.995 136.71 112.879 140.646C116.292 139.564 119.464 137.829 122.22 135.536L122.912 134.969C125.17 133.099 127.032 130.764 128.376 128.104C129.726 125.452 130.54 122.536 130.755 119.539C131.191 112.62 128.846 105.675 125.197 99.4786C123.53 101.909 121.232 103.792 118.578 104.905C116.918 105.614 115.157 106.053 113.363 106.188C112.335 106.254 111.31 106.02 110.413 105.513C109.501 104.993 108.754 104.226 108.256 103.299C107.843 102.552 107.608 101.719 107.567 100.866C107.526 100.013 107.681 99.1618 108.02 98.3784C110.789 91.8176 111.649 84.5414 110.473 77.4743C109.081 69.389 105.226 61.9367 99.4388 56.145C98.3904 71.0283 83.1962 84.8856 80.0781 87.869C79.5947 88.3264 79.0925 88.7633 78.5727 89.1785C62.2697 102.442 63.3852 114.524 63.3852 115.057C63.0615 119.857 64.1331 124.648 66.4698 128.847C68.9226 133.201 72.4507 136.791 76.6844 139.242C71.7989 128.455 71.7989 115.509 89.829 96.9475L92.3289 95.26L92.3222 95.2735Z" fill="url(#paint0_linear_45_2)"/>
<defs>
<linearGradient id="paint0_linear_45_2" x1="97" y1="42" x2="97.2839" y2="153.548" gradientUnits="userSpaceOnUse">
<stop stop-color="#FFE600"/>
<stop offset="1" stop-color="#862000"/>
</linearGradient>
</defs>
</svg>
